# xmcd
#
# Track frame offsets: 
#        150
#        16143
#        28485
#        41976
#        51496
#        60695
#        70663
#        82869
#        96068
#        107402
#        120492
#        136115
#        150686
#        168387
#
# Disc length: 2464 seconds
#
# Revision: 0
# Processed by: cddbd v1.5.2PL0 Copyright (c) Steve Scherf et al.
# Submitted via: ExactAudioCopy v0.95b3
#
DISCID=b2099e0e
DTITLE=Frank Sinatra  - Monte Carlo 1958  FLAC
DYEAR=1900
DGENRE=
TTITLE0=Introduction by Noel Coward
TTITLE1=Come Fly With Me
TTITLE2=I Get A Kick Out Of You
TTITLE3=I've Got You Under My Skin
TTITLE4=Where Or When
TTITLE5=Moonlight In Vermont
TTITLE6=On The Road To Mandalay
TTITLE7=Your Lover Has Gone
TTITLE8=April In Paris
TTITLE9=All The Way
TTITLE10=Monique
TTITLE11=Bewitched
TTITLE12=The Lady Is A Tramp
TTITLE13=You Make Me Feel So Young
EXTD=
EXTT0=
EXTT1=
EXTT2=
EXTT3=
EXTT4=
EXTT5=
EXTT6=
EXTT7=
EXTT8=
EXTT9=
EXTT10=
EXTT11=
EXTT12=
EXTT13=
PLAYORDER=
